<svg width="170" height="46" viewBox="0 0 170 46" fill="none" xmlns="http://www.w3.org/2000/svg">
<path d="M96.7835 21.7544H101.645L95.0325 2.68213H89.3659L82.7529 21.7544H87.615L95.8143 18.7644L96.7835 21.7544ZM89.2116 16.9062L92.1992 7.67365L94.4872 14.6828L89.2116 16.9062ZM110.68 2.68213H103.314V21.7544H107.765V15.7743H110.67C114.503 15.7743 117.489 12.8447 117.489 9.22922C117.489 5.61369 114.503 2.68213 110.67 2.68213H110.68ZM110.68 11.6725H107.765V6.78389H110.67C112.03 6.78389 113.04 7.83506 113.04 9.22922C113.04 10.6234 112.03 11.6725 110.67 11.6725H110.68ZM124.155 17.572V14.1784H131.097V10.0363H124.145V6.88477H131.789V2.68213H119.694V21.7544H131.933V17.572H124.155ZM145.005 2.68213V9.9959H138.875V2.68213H134.425V21.7544H138.875V14.1784H144.994V21.7544H149.445V2.68213H145.005ZM165.136 21.7544H170L163.385 2.68213H157.708L151.093 21.7544H155.975L156.945 18.7644H164.156L165.136 21.7544ZM158.263 14.6828L160.549 7.67365L162.837 14.6828H158.263Z" fill="#FFFFFF"/>
<path d="M86.5615 43.2109L88.8261 38.4137L82.7529 26.2261H84.8116L89.7793 36.4545L94.4794 26.2261H96.3754L88.4803 43.2109H86.5615ZM98.1665 43.2109V26.2261H102.681C103.6 26.2134 104.517 26.2816 105.423 26.43C106.072 26.5635 106.692 26.8055 107.258 27.1456C107.724 27.4333 108.136 27.7997 108.474 28.2282C109.17 29.1038 109.544 30.1883 109.533 31.3026C109.542 32.0776 109.373 32.8446 109.039 33.5452C108.704 34.2237 108.2 34.8067 107.575 35.2394C107.217 35.5121 106.821 35.7325 106.399 35.8938C105.94 36.0618 105.463 36.178 104.977 36.2404C104.362 36.3196 103.743 36.3537 103.124 36.3424H99.8855V43.2007L98.1665 43.2109ZM99.8793 34.8215H102.848C103.545 34.8325 104.242 34.7778 104.929 34.6583C105.425 34.5907 105.901 34.4198 106.325 34.1568C106.796 33.8651 107.174 33.4483 107.416 32.954C107.684 32.4439 107.82 31.8755 107.81 31.3005C107.822 30.6259 107.627 29.9634 107.252 29.4004C106.873 28.834 106.326 28.3991 105.685 28.1568C105.067 27.8897 104.18 27.7674 103.027 27.7674H102.696L102.387 27.7878H99.8855L99.8793 34.8215ZM110.391 43.2109L117.802 26.2261H119.699L127.038 43.2109H125.204L122.733 37.5024H114.747L112.254 43.2109H110.391ZM118.865 28.3505L118.741 27.8999L118.618 28.3505L115.429 35.9917H122.045L118.865 28.3505ZM134.902 28.0222L129.42 43.2109H127.55L134.023 26.2261H135.94L142.528 43.2109H140.454L134.902 28.0222Z" fill="#FFFFFF" stroke="#FFFFFF" stroke-width="0.25" stroke-miterlimit="10"/>
<path fill-rule="evenodd" clip-rule="evenodd" d="M61.2479 11.1811L63.4185 10.5523L65.7189 9.89077L66.3227 9.71495L65.7189 9.55105L63.4185 8.88948L61.1181 8.22493L60.8826 8.15639V11.2854V14.0509C60.4577 13.6142 60.0028 13.207 59.5211 12.8321C56.2003 10.1888 50.73 8.03719 43.391 7.00013V3.02177L45.5646 2.39298L47.865 1.73439L48.4477 1.55558L47.865 1.39168L45.5646 0.730112L43.2612 0.0655614L43.0257 0V3.12607V6.93755C42.2589 6.83325 41.474 6.74087 40.6619 6.6604L40.683 6.61868C39.0498 6.48458 37.4709 6.39816 35.9312 6.35644C35.6293 6.35644 35.3274 6.3326 35.0467 6.32664H34.8957C34.3161 6.31472 33.7455 6.30876 33.184 6.30876H33.1387C32.5772 6.30876 32.0066 6.31472 31.427 6.32664H31.2791C30.9772 6.32664 30.6904 6.34452 30.3945 6.35644C28.8519 6.39816 27.276 6.48458 25.6427 6.61868L25.6608 6.6604C24.8488 6.74087 24.0638 6.83325 23.297 6.93755V0.381447V0L23.0616 0.0655614L20.7611 0.730112L18.4577 1.39168L17.8781 1.55558L18.4577 1.73439L20.7611 2.40192L22.9317 3.03071V6.99119C15.5958 8.02825 10.1134 10.1798 6.80163 12.8231C6.32192 13.2025 5.8681 13.6126 5.44312 14.0509V8.54975V8.15639L5.20764 8.22493L2.90421 8.88948L0.603785 9.55403L0 9.71793L0.603785 9.89375L2.90421 10.5553L5.07783 11.1841V14.4383C3.92062 15.6595 3.16861 17.2003 2.92232 18.8548C2.62043 21.0361 3.41139 23.2563 5.33746 25.3155C5.9581 25.966 6.63823 26.5585 7.36919 27.0856V38.824C9.53218 40.3269 11.858 41.5873 14.3037 42.5819C16.9301 43.6756 20.8094 45.249 24.0367 46L24.0186 43.9974V39.2293C25.6866 38.6618 27.4235 38.315 29.1839 38.1982C29.2564 38.1982 29.3379 38.1804 29.4194 38.1744C30.5877 38.0939 31.8345 38.0701 33.181 38.1059C34.5214 38.0701 35.7732 38.0929 36.9365 38.1744C37.015 38.1744 37.0965 38.1744 37.169 38.1982C38.9303 38.3154 40.6682 38.6621 42.3374 39.2293V43.9974L42.3193 46C45.5465 45.249 49.4258 43.6756 52.0553 42.5819C54.4904 41.5864 56.806 40.327 58.9596 38.827V27.0856C59.6908 26.5622 60.3701 25.9715 60.9883 25.3215C62.9264 23.2622 63.7053 21.0421 63.4034 18.8607C63.1566 17.2056 62.4047 15.664 61.2479 14.4413V11.1811ZM58.4494 15.3264L47.5813 22.103C45.6008 20.5534 42.434 19.3107 38.2226 18.7415L43.2431 9.50337C49.8847 10.4629 54.7995 12.3821 57.752 14.7333C58.0026 14.936 58.232 15.1297 58.4494 15.3264ZM29.8481 8.9014C30.1017 8.9014 30.3553 8.87756 30.6149 8.87756C30.9923 8.85968 31.3636 8.85372 31.7289 8.84776C32.1878 8.84776 32.6346 8.84776 33.0844 8.84776H33.2383C33.6972 8.84776 34.144 8.84776 34.5938 8.84776C34.9712 8.84776 35.3425 8.84776 35.7078 8.87756C35.9614 8.87756 36.215 8.87756 36.4746 8.9014C38.3192 8.9759 40.0611 9.11 41.7125 9.30669L36.686 18.5717C36.6326 18.5589 36.5779 18.5519 36.5229 18.5508L36.5501 18.4972C35.3727 18.4226 34.2467 18.3928 33.1659 18.4048C32.0851 18.4167 30.95 18.4226 29.7756 18.4972L29.7998 18.5508C29.7458 18.5517 29.6921 18.5587 29.6398 18.5717L24.6103 9.30669C26.2616 9.11 28.0126 8.9759 29.8481 8.9014ZM23.0676 9.49741L28.0881 18.7356C23.8887 19.3047 20.7249 20.5474 18.7445 22.097L7.87637 15.3204C8.09072 15.1237 8.32015 14.93 8.55865 14.7244C11.5112 12.391 16.4169 10.4719 23.0585 9.51231L23.0676 9.49741ZM6.88919 16.3843L17.6728 23.1073C15.9218 25.098 15.9278 27.4254 18.0139 29.4786C12.6795 27.9886 9.5881 25.9771 7.38429 23.6526C5.02651 21.1404 5.11406 18.6134 6.88919 16.3843ZM15.1067 35.8589C12.9393 34.9525 10.8425 33.8897 8.83337 32.6792V28.0542C10.8155 29.2243 12.9186 30.1824 15.1067 30.912V35.8589ZM8.83337 38.0612V34.3331C10.8661 35.466 12.9604 36.4877 15.1067 37.3936V41.3601C15.0222 41.3273 14.9316 41.2945 14.8501 41.2587C12.738 40.4009 10.7217 39.3293 8.83337 38.0612ZM16.5528 41.9054V37.9926C18.4992 38.7923 20.5058 39.4409 22.5544 39.9326V43.6487C20.4864 43.1392 18.3822 42.5491 16.5528 41.9054ZM37.0241 36.7321C35.7742 36.6486 34.5878 36.6039 33.2897 36.6367H33.0421C31.741 36.6039 30.5485 36.6367 29.2987 36.7321C26.9288 36.9109 24.7884 37.6678 22.7416 37.9241C20.63 37.6602 18.5576 37.1501 16.5679 36.4042V31.3829C20.1906 32.5123 22.4095 34.3629 33.1719 34.3629C43.4363 34.3629 46.1533 32.5004 49.776 31.3829V36.4221C47.7806 37.1652 45.7033 37.6733 43.5872 37.936C41.5343 37.6678 39.3939 36.9109 37.0241 36.7321ZM43.7684 39.9326C45.8161 39.4382 47.8226 38.7896 49.77 37.9926V41.9054C47.9405 42.5491 45.8454 43.1392 43.7684 43.6487V39.9326ZM51.4726 41.2587C51.3911 41.2945 51.3006 41.3273 51.2191 41.3601V37.3936C53.3648 36.4865 55.459 35.4648 57.4924 34.3331V38.0612C55.6034 39.3299 53.586 40.4015 51.4726 41.2587ZM57.4924 32.6762C55.4835 33.8873 53.3867 34.9501 51.2191 35.8559V30.909C53.408 30.1789 55.5112 29.2188 57.4924 28.0452V32.6762ZM58.9445 23.6526C56.7437 25.9771 53.6372 28.0065 48.3028 29.4846C50.3949 27.4254 50.4009 25.098 48.6499 23.1073L59.4426 16.3783C61.2147 18.6074 61.2962 21.1434 58.9445 23.6526Z" fill="#FFFFFF"/>
</svg>
