<svg xmlns="http://www.w3.org/2000/svg" xmlns:xlink="http://www.w3.org/1999/xlink">
    <symbol viewBox="0 0 24 24" id="arrow_left" xmlns="http://www.w3.org/2000/svg">
        <path d="M19 12H5M5 12L12 19M5 12L12 5" stroke-width="1.67" stroke-linecap="round" stroke-linejoin="round"/>
    </symbol>
    <symbol viewBox="0 0 24 24" id="arrow_right" xmlns="http://www.w3.org/2000/svg">
        <path d="M5 12L19 12M19 12L12 5M19 12L12 19" stroke-width="1.67" stroke-linecap="round" stroke-linejoin="round"/>
    </symbol>
    <symbol viewBox="0 0 24 24" id="arrow_up_right" xmlns="http://www.w3.org/2000/svg">
       <path d="M7 17L17 7M17 7H7M17 7V17" stroke-width="2" stroke-linecap="round" stroke-linejoin="round"/>
    </symbol>
    <symbol viewBox="0 0 20 20" id="chevron_down" xmlns="http://www.w3.org/2000/svg">
        <path d="M5 7.5L10 12.5L15 7.5" stroke-width="1.66667" stroke-linecap="round" stroke-linejoin="round"/>
    </symbol>
    <symbol viewBox="0 0 20 20" id="chevron_left" xmlns="http://www.w3.org/2000/svg">
        <path d="M12.7344 5L7.73438 10L12.7344 15" stroke-width="1.66667" stroke-linecap="round" stroke-linejoin="round"/>
    </symbol>
    <symbol viewBox="0 0 20 20" id="chevron_right" xmlns="http://www.w3.org/2000/svg">
        <path d="M7.73438 15L12.7344 10L7.73438 5" stroke-width="1.66667" stroke-linecap="round" stroke-linejoin="round"/>
    </symbol>
    <symbol viewBox="0 0 24 24" id="copy" xmlns="http://www.w3.org/2000/svg">
        <path d="M5 15H4C3.46957 15 2.96086 14.7893 2.58579 14.4142C2.21071 14.0391 2 13.5304 2 13V4C2 3.46957 2.21071 2.96086 2.58579 2.58579C2.96086 2.21071 3.46957 2 4 2H13C13.5304 2 14.0391 2.21071 14.4142 2.58579C14.7893 2.96086 15 3.46957 15 4V5M11 9H20C21.1046 9 22 9.89543 22 11V20C22 21.1046 21.1046 22 20 22H11C9.89543 22 9 21.1046 9 20V11C9 9.89543 9.89543 9 11 9Z" stroke-width="1.67" stroke-linecap="round" stroke-linejoin="round"/>
    </symbol>
    <symbol viewBox="0 0 24 24" id="check" xmlns="http://www.w3.org/2000/svg">
        <path d="M20 6L9 17L4 12" stroke-width="1.66667" stroke-linecap="round" stroke-linejoin="round"/>
    </symbol>
    <symbol viewBox="0 0 24 24" id="location" xmlns="http://www.w3.org/2000/svg">
        <path d="M21 10C21 17 12 23 12 23C12 23 3 17 3 10C3 7.61305 3.94821 5.32387 5.63604 3.63604C7.32387 1.94821 9.61305 1 12 1C14.3869 1 16.6761 1.94821 18.364 3.63604C20.0518 5.32387 21 7.61305 21 10Z" stroke-width="2" stroke-linecap="round" stroke-linejoin="round"/>
        <path d="M12 13C13.6569 13 15 11.6569 15 10C15 8.34315 13.6569 7 12 7C10.3431 7 9 8.34315 9 10C9 11.6569 10.3431 13 12 13Z" stroke-width="2" stroke-linecap="round" stroke-linejoin="round"/>
    </symbol>
    <symbol viewBox="0 0 24 24" id="calendar" xmlns="http://www.w3.org/2000/svg">
        <path d="M16 2V6M8 2V6M3 10H21M5 4H19C20.1046 4 21 4.89543 21 6V20C21 21.1046 20.1046 22 19 22H5C3.89543 22 3 21.1046 3 20V6C3 4.89543 3.89543 4 5 4Z" stroke-width="2" stroke-linecap="round" stroke-linejoin="round"/>
    </symbol>
    <symbol viewBox="0 0 24 24" id="watch" xmlns="http://www.w3.org/2000/svg">
        <path d="M12.2344 9.00002V12L13.7344 13.5M16.7444 17.35L16.3944 21.18C16.3493 21.6787 16.1189 22.1423 15.7486 22.4792C15.3783 22.8162 14.895 23.002 14.3944 23H10.0644C9.5637 23.002 9.08048 22.8162 8.71018 22.4792C8.33988 22.1423 8.10943 21.6787 8.06437 21.18L7.71438 17.35M7.72437 6.65002L8.07438 2.82002C8.11928 2.32309 8.3483 1.8609 8.71649 1.52417C9.08467 1.18744 9.56543 1.00049 10.0644 1.00002H14.4144C14.915 0.997985 15.3983 1.18381 15.7686 1.52079C16.1389 1.85776 16.3693 2.32137 16.4144 2.82002L16.7644 6.65002M19.2344 12C19.2344 15.866 16.1004 19 12.2344 19C8.36838 19 5.23438 15.866 5.23438 12C5.23438 8.13402 8.36838 5.00002 12.2344 5.00002C16.1004 5.00002 19.2344 8.13402 19.2344 12Z"  stroke-width="2" stroke-linecap="round" stroke-linejoin="round"/>
    </symbol>
    <symbol viewBox="0 0 24 24" id="mail" xmlns="http://www.w3.org/2000/svg">
        <path d="M22 6C22 4.9 21.1 4 20 4H4C2.9 4 2 4.9 2 6M22 6V18C22 19.1 21.1 20 20 20H4C2.9 20 2 19.1 2 18V6M22 6L12 13L2 6"  stroke-width="2" stroke-linecap="round" stroke-linejoin="round"/>
    </symbol>
    <symbol viewBox="0 0 24 24" id="phone" xmlns="http://www.w3.org/2000/svg">
        <path d="M21.9999 16.92V19.92C22.0011 20.1985 21.944 20.4741 21.8324 20.7293C21.7209 20.9845 21.5572 21.2136 21.352 21.4018C21.1468 21.5901 20.9045 21.7335 20.6407 21.8227C20.3769 21.9119 20.0973 21.945 19.8199 21.92C16.7428 21.5856 13.7869 20.5341 11.1899 18.85C8.77376 17.3146 6.72527 15.2661 5.18993 12.85C3.49991 10.2412 2.44818 7.27097 2.11993 4.17997C2.09494 3.90344 2.12781 3.62474 2.21643 3.3616C2.30506 3.09846 2.4475 2.85666 2.6347 2.6516C2.82189 2.44653 3.04974 2.28268 3.30372 2.1705C3.55771 2.05831 3.83227 2.00024 4.10993 1.99997H7.10993C7.59524 1.9952 8.06572 2.16705 8.43369 2.48351C8.80166 2.79996 9.04201 3.23942 9.10993 3.71997C9.23656 4.68004 9.47138 5.6227 9.80993 6.52997C9.94448 6.8879 9.9736 7.27689 9.89384 7.65086C9.81408 8.02482 9.6288 8.36809 9.35993 8.63998L8.08993 9.90997C9.51349 12.4135 11.5864 14.4864 14.0899 15.91L15.3599 14.64C15.6318 14.3711 15.9751 14.1858 16.3491 14.1061C16.723 14.0263 17.112 14.0554 17.4699 14.19C18.3772 14.5285 19.3199 14.7634 20.2799 14.89C20.7657 14.9585 21.2093 15.2032 21.5265 15.5775C21.8436 15.9518 22.0121 16.4296 21.9999 16.92Z" stroke-width="2" stroke-linecap="round" stroke-linejoin="round"/>
    </symbol>
    <symbol viewBox="0 0 24 24" id="close" xmlns="http://www.w3.org/2000/svg">
        <path d="M18.2344 6L6.23438 18M6.23438 6L18.2344 18" stroke-width="2" stroke-linecap="round" stroke-linejoin="round"/>
    </symbol>
     <symbol viewBox="0 0 24 24" id="passport" xmlns="http://www.w3.org/2000/svg">
        <path d="M4 19.5C4 18.837 4.26339 18.2011 4.73223 17.7322C5.20107 17.2634 5.83696 17 6.5 17H20M4 19.5C4 20.163 4.26339 20.7989 4.73223 21.2678C5.20107 21.7366 5.83696 22 6.5 22H20V2H6.5C5.83696 2 5.20107 2.26339 4.73223 2.73223C4.26339 3.20107 4 3.83696 4 4.5V19.5Z" stroke-width="2" stroke-linecap="round" stroke-linejoin="round"/>
    </symbol>
    <symbol viewBox="0 0 24 24" id="study" xmlns="http://www.w3.org/2000/svg">
        <g clip-path="url(#clip0_1845_72)">
        <mask id="mask0_1845_72" style="mask-type:luminance" maskUnits="userSpaceOnUse" x="0" y="0" width="25" height="25">
        <path d="M24.7661 0.531433H0.766113V24.5314H24.7661V0.531433Z" fill="white"/>
        </mask>
        <g mask="url(#mask0_1845_72)">
        <path d="M5.76587 15.0314V18.0314C10.1725 20.2347 15.3593 20.2347 19.7659 18.0314V15.0314M12.7659 5.03143L2.76587 10.0314L12.7659 15.0314L22.7659 10.0314L12.7659 5.03143Z"  stroke-width="2" stroke-linecap="round" stroke-linejoin="round"/>
        <path d="M1.76636 15.5314L2.26635 13.5315L2.76636 15.5314L2.26635 16.5315L1.76636 15.5314Z" stroke-width="2" stroke-linecap="round" stroke-linejoin="round"/>
        </g>
        </g>
        <defs>
        <clipPath id="clip0_1845_72">
        <rect width="24" height="24" fill="white" transform="translate(0.766113 0.531433)"/>
        </clipPath>
        </defs>
    </symbol>
     <symbol viewBox="0 0 24 24" id="alert" xmlns="http://www.w3.org/2000/svg">
        <path d="M11.9998 7.99996V12M11.9998 16H12.0098M10.2898 2.85996L1.81978 17C1.64514 17.3024 1.55274 17.6453 1.55177 17.9945C1.55079 18.3437 1.64127 18.6871 1.8142 18.9905C1.98714 19.2939 2.2365 19.5467 2.53748 19.7238C2.83847 19.9009 3.18058 19.9961 3.52978 20H20.4698C20.819 19.9961 21.1611 19.9009 21.4621 19.7238C21.7631 19.5467 22.0124 19.2939 22.1854 18.9905C22.3583 18.6871 22.4488 18.3437 22.4478 17.9945C22.4468 17.6453 22.3544 17.3024 22.1798 17L13.7098 2.85996C13.5315 2.56607 13.2805 2.32308 12.981 2.15444C12.6814 1.98581 12.3435 1.89722 11.9998 1.89722C11.656 1.89722 11.3181 1.98581 11.0186 2.15444C10.7191 2.32308 10.468 2.56607 10.2898 2.85996Z" stroke-width="2" stroke-linecap="round" stroke-linejoin="round"/>
    </symbol>

    <symbol viewBox="0 0 20 20" id="vk" xmlns="http://www.w3.org/2000/svg">
      <path d="M16.4906 11.8757C16.2886 11.6017 16.2434 11.3243 16.3538 11.0432C16.6292 10.2934 20.64 5.53074 18.9692 5.53074C17.821 5.546 16.4402 5.53074 15.3395 5.53074C15.1351 5.58048 15.0029 5.68772 14.9202 5.90591C14.2765 7.39012 13.4888 9.20138 12.3344 10.3655C12.1826 10.4879 12.0879 10.4827 11.9149 10.4374C11.1051 9.58488 11.9685 6.66414 11.4761 5.51005C11.379 5.28414 11.1666 5.18211 10.9493 5.12465C9.8499 4.86265 7.33908 5.0186 6.92941 5.546C6.8123 5.69677 6.79596 5.77905 6.88051 5.79258C7.27084 5.85416 7.54716 6.00147 7.70979 6.23437C8.01661 6.91003 8.24271 10.5091 7.33908 10.5091C6.43545 10.5091 4.97831 6.977 4.57801 5.99784C4.47148 5.70301 4.2003 5.53399 3.91456 5.4841L1.24121 5.50454C0.771303 5.50454 0.508679 5.73634 0.675234 6.20335C2.06763 9.65965 5.11467 16.3591 9.78805 16.1914C10.2562 16.1914 11.0616 16.3711 11.4272 15.9653C11.9297 15.2986 11.3169 14.1114 12.1785 13.6587C12.3958 13.543 12.621 13.6399 12.8077 13.7821C13.7661 14.5118 14.2749 15.7927 15.4568 16.1815C15.6646 16.25 15.8467 16.2671 16.003 16.2329L18.5007 16.1919C18.9644 16.1919 19.4212 15.9855 19.3252 15.4312C18.9611 14.2423 17.5101 13.0203 16.4906 11.8757Z"/>
    </symbol>
    <symbol viewBox="0 0 20 20" id="telegram" xmlns="http://www.w3.org/2000/svg">
       <path d="M17.4864 4.3122C17.613 3.52112 16.8352 2.8967 16.1078 3.20553L1.62052 9.35654C1.0989 9.57801 1.13706 10.342 1.67805 10.5086L4.6657 11.4287C5.2359 11.6043 5.85335 11.5135 6.35127 11.1808L13.0871 6.68062C13.2902 6.54492 13.5116 6.8242 13.3381 6.99723L8.48949 11.8313C8.01915 12.3003 8.11251 13.0949 8.67825 13.438L14.1068 16.7299C14.7156 17.0992 15.4989 16.7282 15.6128 16.0168L17.4864 4.3122Z"/>
    </symbol>
    <symbol viewBox="0 0 20 20" id="whatsap" xmlns="http://www.w3.org/2000/svg">
       <path fill-rule="evenodd" clip-rule="evenodd" d="M10 19.2814C14.8325 19.2814 18.75 15.3639 18.75 10.5314C18.75 5.69893 14.8325 1.78143 10 1.78143C5.1675 1.78143 1.25 5.69893 1.25 10.5314C1.25 12.1007 1.6631 13.5735 2.3865 14.847L1.25 19.2814L5.8218 18.2213C7.0634 18.8973 8.4868 19.2814 10 19.2814ZM10 17.9352C14.089 17.9352 17.4038 14.6204 17.4038 10.5314C17.4038 6.44243 14.089 3.12763 10 3.12763C5.911 3.12763 2.5962 6.44243 2.5962 10.5314C2.5962 12.1102 3.0903 13.5736 3.9324 14.7753L3.2692 17.2622L5.8 16.6295C6.9934 17.453 8.4404 17.9352 10 17.9352Z" />
        <path d="M7.81248 6.46893C7.60448 6.05103 7.28528 6.08803 6.96288 6.08803C6.38668 6.08803 5.48828 6.77823 5.48828 8.06273C5.48828 9.11543 5.95218 10.2677 7.51528 11.9915C9.02378 13.6551 11.0059 14.5157 12.6514 14.4864C14.2969 14.4571 14.6354 13.0411 14.6354 12.5629C14.6354 12.351 14.5039 12.2452 14.4133 12.2165C13.8525 11.9474 12.8183 11.4459 12.583 11.3517C12.3477 11.2575 12.2248 11.3849 12.1484 11.4543C11.935 11.6576 11.512 12.2569 11.3672 12.3918C11.2224 12.5266 11.0064 12.4583 10.9166 12.4074C10.5859 12.2747 9.68928 11.8759 8.97468 11.1831C8.09078 10.3263 8.03898 10.0315 7.87238 9.76923C7.73918 9.55923 7.83698 9.43043 7.88578 9.37423C8.07618 9.15443 8.33908 8.81523 8.45698 8.64663C8.57498 8.47803 8.48138 8.22213 8.42518 8.06273C8.18358 7.37713 7.97888 6.80323 7.81248 6.46893Z" />
    </symbol>
    <symbol viewBox="0 0 24 24" id="category_cultural" xmlns="http://www.w3.org/2000/svg">
        <path d="M12 2L15.09 8.26L22 9.27L17 14.14L18.18 21.02L12 17.77L5.82 21.02L7 14.14L2 9.27L8.91 8.26L12 2Z" stroke="#EF723B" stroke-width="2" stroke-linecap="round" stroke-linejoin="round"/>
    </symbol>
    <symbol viewBox="0 0 24 24" id="category_hockey" xmlns="http://www.w3.org/2000/svg">
        <path d="M5.72944 19.2119L1 2H4.43745L7.48482 11.6898C8.39453 14.5825 11.3195 16.3417 14.3011 15.7895L20.6358 14.6162C21.8653 14.3885 23 15.3323 23 16.5828V21C23 22.1046 22.1046 23 21 23H10.6988C8.37847 23 6.34424 21.4493 5.72944 19.2119Z" stroke="#EF723B" stroke-width="2" stroke-linecap="round" stroke-linejoin="round"/>
        <path d="M12 4.88462V8.38462C12 9.27846 14.2222 10 17 10C19.7778 10 22 9.27846 22 8.38462V4.88462M22 4.61538C22 5.50754 19.7614 6.23077 17 6.23077C14.2386 6.23077 12 5.50754 12 4.61538C12 3.72323 14.2386 3 17 3C19.7614 3 22 3.72323 22 4.61538Z" stroke="#EF723B" stroke-width="2" stroke-linecap="round" stroke-linejoin="round"/>
    </symbol>
    <symbol viewBox="0 0 24 24" id="category_football" xmlns="http://www.w3.org/2000/svg">
        <path d="M12 22C17.5228 22 22 17.5228 22 12C22 6.47715 17.5228 2 12 2C6.47715 2 2 6.47715 2 12C2 17.5228 6.47715 22 12 22Z" stroke="#EF723B"  stroke-width="2" stroke-linecap="round" stroke-linejoin="round"/>
        <path d="M12 7.99988L15.8042 10.7638L14.3511 15.2359H9.64886L8.19577 10.7638L12 7.99988Z" fill="#EF723B"/>
        <path d="M8.35111 16.7638L3.64883 16.7638L5.99951 19.9999L9.8042 21.236L8.35111 16.7638Z" fill="#EF723B"/>
        <path d="M15.6489 16.7638L20.3512 16.7638L18.4995 19.4999L14.1958 21.236L15.6489 16.7638Z" fill="#EF723B"/>
        <path d="M5.86026 10.2711L4.38848 5.80506L3.00024 7.99988L2.06763 13.0509L5.86026 10.2711Z" fill="#EF723B"/>
        <path d="M18.1397 10.2711L19.6115 5.80506L21.9324 13.0509L18.1397 10.2711Z" fill="#EF723B"/>
        <path d="M12.0677 6.05093L15.8603 3.27111L12.5002 2L8.25193 3.30293L12.0677 6.05093Z" fill="#EF723B"/>
    </symbol>
    <symbol viewBox="0 0 24 24" id="category_sport" xmlns="http://www.w3.org/2000/svg">
        <path d="M15.6374 6.52846L6.5542 15.6117L8.43572 17.4932L17.519 8.40999L15.6374 6.52846Z" stroke="#EF723B" stroke-width="2" stroke-linecap="round" stroke-linejoin="round"/>
        <path d="M10.8896 19.9477C11.4401 20.4982 11.4401 21.4616 10.8896 22.0122L10.2932 22.6086C9.74264 23.1591 8.77921 23.1591 8.22867 22.6086L1.43878 15.8187C0.888246 15.2681 0.888246 14.3047 1.43878 13.7542L2.03519 13.1578C2.58572 12.6072 3.54915 12.6072 4.09968 13.1578L10.8896 19.9477Z" stroke="#EF723B" stroke-width="2" stroke-linecap="round" stroke-linejoin="round"/>
        <path d="M6.49947 21.7084L5.40229 22.8056C5.14071 23.0672 4.68294 23.0672 4.42136 22.8056L1.19521 19.5795C0.933628 19.3179 0.933628 18.8601 1.19521 18.5985L2.29239 17.5013" stroke="#EF723B" stroke-width="2" stroke-linecap="round" stroke-linejoin="round"/>
        <path d="M21.7073 6.50045L22.8045 5.40326C23.0661 5.14168 23.0661 4.68392 22.8045 4.42234L19.5784 1.19619C19.3168 0.934605 18.859 0.934605 18.5974 1.19619L17.5002 2.29337" stroke="#EF723B" stroke-width="2" stroke-linecap="round" stroke-linejoin="round"/>
        <path d="M2.78667 21.1683L1.91577 22.0392" stroke="#EF723B" stroke-width="2" stroke-linecap="round" stroke-linejoin="round"/>
        <path d="M13.1837 4.0738C12.6331 3.52327 12.6331 2.55984 13.1837 2.00931L13.7801 1.4129C14.3306 0.862367 15.294 0.862367 15.8446 1.4129L22.5886 8.15692C23.1391 8.70745 23.1391 9.67088 22.5886 10.2214L21.9922 10.8178C21.4416 11.3684 20.4782 11.3684 19.9277 10.8178L13.1837 4.0738Z" stroke="#EF723B" stroke-width="2" stroke-linecap="round" stroke-linejoin="round"/>
        <path d="M21.1672 2.78765L22.0381 1.91675" stroke="#EF723B" stroke-width="2" stroke-linecap="round" stroke-linejoin="round"/>
    </symbol>
</svg>