<svg width="82" height="81" viewBox="0 0 82 81" fill="none" xmlns="http://www.w3.org/2000/svg">
<g id="vk">
<rect id="bg" x="5.99805" y="5.0293" width="70.41" height="70.41" rx="20.1171" fill="#2789F6"/>
<path id="vk_2" d="M58.6128 46.1038C58.071 45.3687 57.9497 44.6247 58.2457 43.8708C58.9844 41.8595 69.7427 29.0847 65.261 29.0847C62.1813 29.1257 58.4776 29.0847 55.5251 29.0847C54.977 29.2182 54.6223 29.5058 54.4004 30.0911C52.6739 34.0721 50.5611 38.9304 47.4647 42.0528C47.0574 42.3812 46.8033 42.3672 46.3393 42.2458C44.1673 39.9591 46.4832 32.1248 45.1624 29.0292C44.9021 28.4233 44.3323 28.1496 43.7493 27.9955C40.8005 27.2927 34.0657 27.711 32.9669 29.1257C32.6527 29.5301 32.6089 29.7508 32.8357 29.7871C33.8827 29.9522 34.6239 30.3474 35.0601 30.9721C35.883 32.7844 36.4895 42.4382 34.0657 42.4382C31.6419 42.4382 27.7335 32.964 26.6597 30.3376C26.374 29.5468 25.6466 29.0934 24.8802 28.9596L17.7095 29.0145C16.4491 29.0145 15.7446 29.6362 16.1914 30.8889C19.9262 40.1596 28.0992 58.1295 40.6346 57.6797C41.8903 57.6797 44.0506 58.1617 45.0313 57.0731C46.3791 55.285 44.7354 52.1006 47.0465 50.8861C47.6293 50.576 48.2334 50.8359 48.7342 51.2172C51.3048 53.1746 52.6696 56.6102 55.8398 57.6532C56.3972 57.8368 56.8855 57.8828 57.3049 57.791L64.0043 57.6809C65.2481 57.6809 66.4733 57.1275 66.2159 55.6406C65.2392 52.4517 61.3473 49.1738 58.6128 46.1038Z" fill="white"/>
</g>
</svg>
