<svg width="81" height="81" viewBox="0 0 81 81" fill="none" xmlns="http://www.w3.org/2000/svg">
<g id="whatsapp">
<path id="border" fill-rule="evenodd" clip-rule="evenodd" d="M40.6718 77.954C60.115 77.954 75.8768 62.1921 75.8768 42.749C75.8768 23.3058 60.115 7.54395 40.6718 7.54395C21.2286 7.54395 5.4668 23.3058 5.4668 42.749C5.4668 49.0629 7.12897 54.9887 10.0396 60.1125L5.4668 77.954L23.8611 73.6886C28.8564 76.4086 34.5836 77.954 40.6718 77.954ZM40.6718 72.5378C57.1237 72.5378 70.4607 59.2009 70.4607 42.749C70.4607 26.297 57.1237 12.9601 40.6718 12.9601C24.2199 12.9601 10.883 26.297 10.883 42.749C10.883 49.1011 12.8712 54.9889 16.2592 59.8239L13.591 69.8297L23.7732 67.2842C28.5748 70.5975 34.3967 72.5378 40.6718 72.5378Z" fill="#BFC8D0"/>
<path id="bg" d="M70.8475 40.2343C70.8475 56.8999 57.3374 70.41 40.6718 70.41C34.3152 70.41 28.4177 68.4445 23.5538 65.0882L13.2393 67.6668L15.9422 57.531C12.5101 52.6332 10.4961 46.669 10.4961 40.2343C10.4961 23.5687 24.0062 10.0586 40.6718 10.0586C57.3374 10.0586 70.8475 23.5687 70.8475 40.2343Z" fill="#148D4E"/>
<path id="border_2" fill-rule="evenodd" clip-rule="evenodd" d="M40.6718 75.4393C60.115 75.4393 75.8768 59.6775 75.8768 40.2343C75.8768 20.7911 60.115 5.0293 40.6718 5.0293C21.2286 5.0293 5.4668 20.7911 5.4668 40.2343C5.4668 46.5483 7.12897 52.474 10.0396 57.5978L5.4668 75.4393L23.8611 71.174C28.8564 73.8939 34.5836 75.4393 40.6718 75.4393ZM40.6718 70.0232C57.1237 70.0232 70.4607 56.6862 70.4607 40.2343C70.4607 23.7824 57.1237 10.4455 40.6718 10.4455C24.2199 10.4455 10.883 23.7824 10.883 40.2343C10.883 46.5865 12.8712 52.4742 16.2592 57.3093L13.591 67.3151L23.7732 64.7695C28.5748 68.0829 34.3967 70.0232 40.6718 70.0232Z" fill="white"/>
<path id="phone" d="M31.8709 23.8893C31.0339 22.208 29.7498 22.3569 28.4526 22.3569C26.1344 22.3569 22.5195 25.1338 22.5195 30.3018C22.5195 34.5373 24.3859 39.1736 30.6749 46.1092C36.7443 52.8026 44.7191 56.2651 51.3397 56.1473C57.9603 56.0294 59.3224 50.3321 59.3224 48.4081C59.3224 47.5554 58.7932 47.1299 58.4287 47.0143C56.1726 45.9315 52.0115 43.914 51.0647 43.535C50.1179 43.1559 49.6235 43.6686 49.3162 43.9475C48.4576 44.7657 46.7557 47.1771 46.1729 47.7195C45.5902 48.2619 44.7214 47.9874 44.3598 47.7823C43.0294 47.2485 39.4221 45.6439 36.5468 42.8566C32.9907 39.4094 32.782 38.2234 32.112 37.1677C31.576 36.3231 31.9693 35.8049 32.1656 35.5784C32.9318 34.6944 33.9897 33.3295 34.4641 32.6512C34.9386 31.973 34.5619 30.9432 34.3359 30.3018C33.364 27.5434 32.5405 25.2343 31.8709 23.8893Z" fill="white"/>
</g>
</svg>
